<?xml version="1.0" standalone="no"?>
<!DOCTYPE svg PUBLIC "-//W3C//DTD SVG 20010904//EN" "http://www.w3.org/TR/2001/REC-SVG-20010904/DTD/svg10.dtd">
<svg version="1.0" xmlns="http://www.w3.org/2000/svg"
  width="225.000000pt" height="225.000000pt" viewBox="0 0 225.000000 225.000000"
  preserveAspectRatio="xMidYMid meet">

  <g transform="translate(0.000000,225.000000) scale(0.100000,-0.100000)"
    fill="#000000" stroke="none">
    <path
      d="M991 2094 c-87 -23 -167 -72 -231 -141 -61 -64 -116 -169 -318 -598
l-57 -120 0 -100 0 -100 64 -133 c35 -73 62 -134 60 -135 -2 -1 -52 -25 -111
-54 -126 -62 -168 -96 -203 -168 -27 -54 -44 -170 -45 -297 0 -51 3 -59 31
-82 l31 -26 913 0 913 0 31 26 c28 23 31 31 31 82 -1 127 -18 243 -45 297 -35
72 -77 106 -203 168 -59 29 -109 53 -111 54 -2 1 25 62 60 135 l64 133 0 100
c0 114 11 87 -204 527 -96 195 -120 237 -171 291 -98 105 -222 158 -370 156
-41 0 -99 -7 -129 -15z m567 -648 l37 -34 3 -174 c5 -252 -18 -334 -130 -454
-66 -70 -166 -127 -250 -143 l-48 -8 0 66 c0 71 -10 91 -45 91 -35 0 -45 -20
-45 -91 l0 -66 -47 8 c-151 28 -299 155 -357 307 -19 52 -21 77 -21 260 l0
204 37 34 38 34 395 0 395 0 38 -34z" />
    <path
      d="M822 1238 c-18 -18 -14 -56 7 -68 11 -5 55 -10 99 -10 63 0 85 4 103
19 21 16 22 22 11 45 -11 25 -14 26 -110 26 -63 0 -102 -4 -110 -12z" />
    <path
      d="M1208 1224 c-11 -23 -10 -29 11 -45 18 -15 40 -19 103 -19 89 0 118
10 118 43 0 40 -18 47 -122 47 -96 0 -99 -1 -110 -26z" />
    <path
      d="M822 1028 c-32 -32 5 -110 64 -134 18 -8 49 -14 67 -14 90 0 179 132
105 156 -16 5 -29 -3 -59 -36 -31 -34 -42 -40 -61 -35 -31 10 -48 24 -48 41 0
13 -29 34 -47 34 -5 0 -14 -5 -21 -12z" />
    <path
      d="M1176 1024 c-21 -20 -20 -32 4 -72 40 -64 113 -88 184 -58 61 25 97
106 61 136 -20 16 -54 3 -65 -26 -10 -26 -51 -47 -74 -38 -8 3 -27 21 -41 40
-29 37 -46 42 -69 18z" />
  </g>
</svg>